<?xml version="1.0" standalone="no"?>
<svg xmlns="http://www.w3.org/2000/svg" viewBox="0 0 111 67" width="111" height="67"><g fill="#ff0000" color="#ff0000" transform="translate(33.056 0) scale(0.7861917) "><svg width="55.966" height="53.431" x="0.0" y="0.0" viewBox="0 0 55.966 53.431"><g><path fill="currentColor" d="M4.565,10.621C0.983,15.277-0.571,21.05,0.188,26.875c0.76,5.826,3.743,11.005,8.399,14.587   c7.777,5.982,18.971,4.521,24.955-3.254c4.853-6.311,3.668-15.392-2.641-20.245c-5.135-3.95-12.526-2.986-16.476,2.148   c-3.227,4.195-2.439,10.235,1.755,13.461c3.444,2.648,8.4,2.002,11.05-1.441c1.06-1.377,1.519-3.084,1.294-4.807   c-0.225-1.722-1.107-3.254-2.484-4.313c-1.144-0.88-2.562-1.262-3.993-1.075c-1.431,0.187-2.704,0.92-3.583,2.064   c-0.337,0.438-0.255,1.065,0.183,1.402c0.438,0.337,1.065,0.255,1.402-0.183c0.554-0.72,1.356-1.182,2.257-1.299   c0.901-0.118,1.794,0.123,2.514,0.677c0.954,0.734,1.565,1.795,1.721,2.988c0.155,1.191-0.163,2.373-0.896,3.328   c-1.977,2.568-5.676,3.051-8.245,1.074c-3.321-2.555-3.944-7.334-1.39-10.656c3.277-4.261,9.41-5.061,13.671-1.783   c5.435,4.181,6.456,12.003,2.275,17.439c-5.311,6.902-15.248,8.199-22.15,2.891c-8.738-6.723-10.379-19.3-3.657-28.038   C14.636,0.809,30.516-1.262,41.548,7.224c6.733,5.178,11.046,12.669,12.145,21.091c1.1,8.424-1.147,16.773-6.326,23.506   c-0.338,0.438-0.256,1.066,0.182,1.402c0.438,0.338,1.066,0.256,1.402-0.182c5.506-7.158,7.895-16.031,6.727-24.984   c-1.169-8.953-5.753-16.914-12.908-22.418C30.861-3.52,13.723-1.285,4.565,10.621z"></path></g></svg></g><path fill="#28ff00" fill-rule="nonzero" d="M7.15 0Q15.82 0 15.82 8.26L15.82 8.26Q15.82 16.51 7.15 16.51L7.15 16.51L0 16.51L0 0L7.15 0ZM5.30 3.96L5.30 12.55L7.06 12.55Q10.39 12.55 10.39 8.98L10.39 8.98L10.39 7.54Q10.39 3.96 7.06 3.96L7.06 3.96L5.30 3.96ZM18.67 16.51L18.67 0L32.95 0L32.95 3.96L23.98 3.96L23.98 6.24L31.66 6.24L31.66 10.03L23.98 10.03L23.98 12.55L33.12 12.55L33.12 16.51L18.67 16.51ZM46.99 0Q48.24 0 49.28 0.52Q50.33 1.03 50.94 1.97Q51.55 2.90 51.55 4.06L51.55 4.06Q51.55 7.10 48.79 7.90L48.79 7.90L48.79 7.99Q51.94 8.71 51.94 12.12L51.94 12.12Q51.94 13.42 51.30 14.41Q50.66 15.41 49.56 15.96Q48.46 16.51 47.14 16.51L47.14 16.51L36.00 16.51L36.00 0L46.99 0ZM41.30 3.62L41.30 6.43L44.95 6.43Q45.48 6.43 45.83 6.06Q46.18 5.69 46.18 5.14L46.18 5.14L46.18 4.90Q46.18 4.37 45.82 4.00Q45.46 3.62 44.95 3.62L44.95 3.62L41.30 3.62ZM41.30 9.84L41.30 12.67L45.34 12.67Q45.86 12.67 46.21 12.30Q46.56 11.93 46.56 11.38L46.56 11.38L46.56 11.14Q46.56 10.58 46.21 10.21Q45.86 9.84 45.34 9.84L45.34 9.84L41.30 9.84ZM70.34 5.06Q70.34 6.58 69.53 7.80Q68.71 9.02 67.15 9.60L67.15 9.60L70.82 16.51L64.87 16.51L61.94 10.49L59.98 10.49L59.98 16.51L54.67 16.51L54.67 0L64.78 0Q66.55 0 67.81 0.68Q69.07 1.37 69.71 2.53Q70.34 3.70 70.34 5.06L70.34 5.06ZM64.94 5.28Q64.94 4.63 64.51 4.20Q64.08 3.77 63.46 3.77L63.46 3.77L59.98 3.77L59.98 6.82L63.46 6.82Q64.08 6.82 64.51 6.37Q64.94 5.93 64.94 5.28L64.94 5.28ZM82.61 0Q84.14 0 85.34 0.71Q86.54 1.42 87.22 2.65Q87.89 3.89 87.89 5.42L87.89 5.42L87.89 5.74Q87.89 7.27 87.22 8.52Q86.54 9.77 85.34 10.48Q84.14 11.18 82.61 11.18L82.61 11.18L78.65 11.18L78.65 16.51L73.34 16.51L73.34 0L82.61 0ZM78.65 3.91L78.65 7.32L80.83 7.32Q81.67 7.32 82.09 6.89Q82.51 6.46 82.51 5.71L82.51 5.71L82.51 5.52Q82.51 4.75 82.09 4.33Q81.67 3.91 80.83 3.91L80.83 3.91L78.65 3.91ZM110.11 16.51L104.86 16.51L104.86 10.56Q104.86 9.46 104.94 8.29Q105.02 7.13 105.12 6.34Q105.22 5.54 105.24 5.33L105.24 5.33L105.14 5.33L102.10 16.51L97.94 16.51L94.87 5.35L94.78 5.35Q94.80 5.57 94.91 6.35Q95.02 7.13 95.11 8.29Q95.21 9.46 95.21 10.56L95.21 10.56L95.21 16.51L90.34 16.51L90.34 0L97.82 0L100.32 9.53L100.42 9.53L102.89 0L110.11 0L110.11 16.51Z" transform="translate(0, 50.008)"></path></svg>